<?xml version="1.0" encoding="UTF-8"?>
<svg id="Ebene_2" xmlns="http://www.w3.org/2000/svg" viewBox="0 0 164.25 111.66">
  <defs>
    <style>
      .cls-1 {
        fill: #ff7900;
      }

      .cls-2 {
        fill: #fff;
      }
    </style>
  </defs>
  <g id="Ebene_1-2">
    <g>
      <path class="cls-1" d="M118.13,0c-8.69-.1-16.81,2.21-23.8,6.26-2.57,1.49-3.29,4.91-1.55,7.33,3.44,4.8,6.15,10.15,7.97,15.9,1.01,3.2,4.82,4.23,7.65,2.43,3.55-2.25,7.97-3.25,12.67-2.33,6.53,1.27,11.95,6.44,13.44,12.93,2.61,11.39-5.97,21.5-16.91,21.5-3.41,0-6.58-.99-9.24-2.7-2.82-1.8-6.61-.66-7.63,2.53-4.48,14.04-14.26,25.71-27.02,32.66-1.67.91-2.75,2.6-2.75,4.5v5.58c0,2.8,2.27,5.07,5.07,5.07h19.13c2.8,0,5.07-2.27,5.07-5.07v-9.76c0-3.35,3.16-5.67,6.42-4.87,3.52.86,7.18,1.32,10.96,1.32,26.19,0,47.34-21.59,46.62-47.95C163.55,20.67,142.8.28,118.13,0Z"/>
      <path class="cls-2" d="M46.64,0C20.88,0,0,20.88,0,46.64s20.88,46.64,46.64,46.64,46.64-20.88,46.64-46.64S72.4,0,46.64,0ZM46.64,64.03c-9.6,0-17.38-7.78-17.38-17.39s7.78-17.39,17.38-17.39,17.39,7.78,17.39,17.39-7.78,17.39-17.39,17.39Z"/>
    </g>
  </g>
</svg>